<?xml version="1.0" encoding="utf-8"?>
<!-- Generator: Adobe Illustrator 19.0.0, SVG Export Plug-In . SVG Version: 6.00 Build 0)  -->
<svg version="1.1" id="layer" xmlns="http://www.w3.org/2000/svg" xmlns:xlink="http://www.w3.org/1999/xlink" x="0px" y="0px"
	 viewBox="-153 -46 652 652" style="enable-background:new -153 -46 652 652;" xml:space="preserve">
<style type="text/css">
	.st0{fill:none;stroke:#D5D7D8;stroke-width:1.8564;stroke-miterlimit:10;}
	.st1{font-family:'MyriadPro-Regular';}
	.st2{font-size:14.8491px;}
</style>
<path d="M-79.9,362h-3.5v-24.7c0-0.4,0.1-1.4,0.4-3.1l-6.8,24.1h-0.7l-6.8-24.1c0.2,1.7,0.4,2.7,0.4,3.1V362h-3.5v-39h3.4l6.7,25.4
	l0.1,1.1l0.1-1.1l6.7-25.4h3.4"/>
<path d="M-13.2,362h-3.7l-1.5-8.7h-8.2L-28,362h-3.5v-0.1l7.4-39h3.6 M-18.7,350.3l-3.6-21.2l-3.7,21.2H-18.7z"/>
<path d="M52.1,359.2c0,0.8-0.3,1.5-0.8,2c-0.6,0.5-1.3,0.8-2.1,0.8H38.2c-0.9,0-1.6-0.3-2.1-0.8c-0.5-0.5-0.8-1.2-0.8-2v-33.5
	c0-0.8,0.3-1.5,0.8-2c0.5-0.5,1.3-0.8,2.1-0.8h10.9c0.9,0,1.6,0.3,2.1,0.8c0.5,0.5,0.8,1.2,0.8,2v9.1h-3.7V326H39v32.9h9.4v-13.5
	h-4.4v-3h8.1"/>
<polyline points="119.2,362 116.6,362 105.6,333.3 105.6,362 102.1,362 102.1,323 104.8,323 115.7,351.2 115.7,323 119.2,323 "/>
<polyline points="182.9,362 169.2,362 169.2,323 182.7,323 182.7,326 172.9,326 172.9,340.6 181.8,340.6 181.8,343.7 172.9,343.7 
	172.9,358.9 182.9,358.9 "/>
<polyline points="246.4,326 239.9,326 239.9,362 236.3,362 236.3,326 229.8,326 229.8,323 246.4,323 "/>
<rect x="294.3" y="323" width="3.7" height="39"/>
<path d="M365,359.2c0,0.8-0.3,1.5-0.9,2c-0.6,0.5-1.3,0.8-2.1,0.8h-10.7c-0.9,0-1.6-0.3-2.1-0.8c-0.5-0.5-0.8-1.2-0.8-2v-33.5
	c0-0.8,0.3-1.5,0.8-2c0.5-0.5,1.3-0.8,2.1-0.8H362c0.9,0,1.6,0.3,2.1,0.8c0.6,0.5,0.9,1.2,0.9,2v9.1h-3.7V326h-9.2v32.9h9.2v-9.6
	h3.7"/>
<path d="M431.1,359.2c0,0.8-0.3,1.5-0.8,2c-0.5,0.5-1.2,0.8-2.1,0.8h-10.4c-0.9,0-1.6-0.3-2.1-0.8c-0.6-0.5-0.8-1.2-0.8-2v-9.9h3.7
	v9.6h9v-9.3l-11.5-13c-0.8-0.9-1.2-1.9-1.2-3v-7.9c0-0.8,0.3-1.5,0.8-2c0.6-0.5,1.3-0.8,2.1-0.8h10.4c0.9,0,1.6,0.3,2.1,0.8
	c0.5,0.5,0.8,1.2,0.8,2v9.1h-3.7V326h-9v8.2l11.5,13c0.8,0.9,1.1,1.8,1.1,2.9"/>
<g>
	<line class="st0" x1="-132.9" y1="305.9" x2="463.5" y2="305.9"/>
	<path d="M287,281.2c-2.1,0-4.2-0.7-6-2l-82.6-60.6v62.6H178v-82.6c0-3.8,2.2-7.3,5.6-9.1c3.4-1.7,7.5-1.4,10.6,0.9l82.6,60.6v-62.6
		h20.4V271c0,3.8-2.2,7.3-5.6,9.1C290.1,280.8,288.6,281.2,287,281.2"/>
	<path d="M0.3,281.2c-2.1,0-4.2-0.7-6-2l-82.6-60.6v62.6h-20.4v-82.6c0-3.8,2.2-7.3,5.6-9.1c3.4-1.7,7.5-1.4,10.6,0.9l82.6,60.6
		v-62.6h20.4V271c0,3.8-2.2,7.3-5.6,9.1C3.5,280.8,1.9,281.2,0.3,281.2"/>
</g>
<g>
	<path d="M142.3,285.2l16.3-12.2l-60.4-80.6c-2-2.6-5-4.2-8.4-4.1c-3.3,0.1-6.3,1.8-8.2,4.5l-54,80.9l16.9,11.3l10.4-15.5h38v-20.4
		H68.4l22.1-33.1"/>
	<path d="M417.5,281.2h-78.1c-12,0-21.8-9.8-21.8-21.8v-49.2c0-12,9.8-21.8,21.8-21.8h78.1c12,0,21.8,9.8,21.8,21.8v49.2
		C439.3,271.4,429.5,281.2,417.5,281.2 M339.4,208.7c-0.8,0-1.5,0.7-1.5,1.5v49.2c0,0.8,0.7,1.5,1.5,1.5h78.1c0.8,0,1.5-0.7,1.5-1.5
		v-49.2c0-0.8-0.6-1.5-1.5-1.5H339.4z"/>
</g>
<text transform="matrix(1 0 0 1 447.7571 208.5703)" class="st1 st2">TM</text>
</svg>
